<?xml version="1.0" standalone="no"?>
<!DOCTYPE svg PUBLIC "-//W3C//DTD SVG 20010904//EN"
 "http://www.w3.org/TR/2001/REC-SVG-20010904/DTD/svg10.dtd">
<svg version="1.0" xmlns="http://www.w3.org/2000/svg"
 width="1536.000000pt" height="1658.000000pt" viewBox="0 0 1536.000000 1658.000000"
 preserveAspectRatio="xMidYMid meet">

<g transform="translate(0.000000,1658.000000) scale(0.100000,-0.100000)"
fill="#000000" stroke="none">
<path d="M6464 10606 c-142 -49 -178 -71 -322 -195 -77 -66 -144 -121 -148
-121 -4 0 -26 -16 -49 -35 -48 -39 -201 -135 -216 -135 -5 0 -9 11 -9 24 0 14
-13 35 -32 53 -18 15 -50 49 -71 75 -61 74 -138 126 -220 149 -223 60 -268 70
-356 75 -84 5 -110 2 -201 -21 -58 -15 -125 -31 -150 -35 -25 -5 -57 -13 -72
-19 -16 -6 -28 -9 -28 -6 0 9 -77 -28 -98 -48 -42 -39 -149 -190 -175 -247
-31 -68 -43 -124 -57 -265 -5 -60 -13 -130 -16 -155 -3 -25 -7 -58 -9 -75 -2
-16 -8 -50 -14 -75 -13 -56 -13 -60 -2 -60 5 0 16 30 25 66 24 94 52 144 157
280 51 65 101 133 111 151 37 62 62 326 34 367 -14 23 -14 24 12 34 15 6 54
18 87 26 33 8 110 27 170 42 160 40 270 35 465 -20 l85 -25 -95 6 c-52 2 -101
6 -107 9 -20 6 -184 -45 -228 -71 -22 -12 -68 -52 -102 -87 -53 -56 -75 -92
-162 -268 -55 -112 -98 -206 -96 -208 2 -2 19 7 37 20 60 45 212 127 271 148
65 22 215 52 226 46 12 -7 172 43 220 69 124 68 180 134 191 224 l5 44 55 -58
c30 -32 68 -71 83 -88 28 -28 54 -83 45 -92 -2 -3 -35 -16 -72 -29 -81 -30
-90 -36 -48 -36 58 0 135 -22 153 -44 35 -41 69 -143 69 -205 0 -84 7 -67
-260 -616 -121 -248 -139 -291 -175 -410 -33 -109 -42 -204 -25 -287 13 -69
40 -138 53 -138 5 0 6 8 2 18 -34 78 -45 130 -46 215 0 81 4 106 39 213 40
120 58 161 165 382 l56 114 -2 -59 c-1 -40 8 -86 28 -148 40 -126 56 -159 158
-329 49 -83 98 -171 107 -195 9 -24 20 -39 24 -33 3 6 -3 34 -14 62 -28 71
-25 112 15 208 39 97 61 244 52 354 -9 109 -123 328 -204 391 -28 22 -28 26
-3 80 62 134 61 234 -4 355 -9 19 -15 36 -12 39 9 9 164 -27 221 -52 92 -41
284 -218 366 -337 41 -60 110 -209 137 -293 9 -29 15 -87 16 -140 0 -115 -45
-278 -144 -525 -118 -295 -116 -466 7 -765 76 -184 164 -320 311 -480 116
-126 155 -160 390 -337 289 -219 337 -246 787 -448 11 -5 107 -50 213 -100
107 -49 196 -90 198 -90 2 0 23 -9 47 -19 23 -11 62 -26 87 -35 123 -40 183
-77 291 -179 59 -55 112 -111 118 -124 6 -14 31 -54 54 -91 38 -58 45 -79 55
-152 19 -139 20 -133 -52 -391 -7 -25 -29 -80 -49 -122 -20 -42 -43 -104 -53
-139 -9 -35 -32 -96 -51 -135 -18 -40 -47 -128 -64 -195 -21 -83 -46 -150 -75
-205 -47 -88 -53 -110 -28 -120 53 -20 244 165 325 315 23 41 237 223 328 277
40 25 76 45 78 45 2 0 19 11 37 25 18 14 37 25 42 25 12 0 114 100 114 112 0
15 31 8 61 -14 22 -16 45 -23 78 -23 62 0 110 32 161 108 33 50 37 61 30 88
-9 30 -9 30 23 24 18 -4 50 -13 72 -20 22 -8 66 -17 98 -20 50 -6 64 -4 110
19 79 38 182 140 198 196 7 25 14 46 15 48 1 2 16 -4 33 -12 36 -19 119 -21
158 -4 49 21 177 101 220 138 46 40 176 122 260 164 61 30 71 43 50 63 -13 13
-23 14 -59 5 -24 -6 -72 -14 -108 -18 -64 -6 -67 -5 -181 50 -63 30 -135 71
-160 89 -153 117 -293 192 -424 227 -214 58 -281 72 -392 85 -157 18 -161 20
-268 73 -127 63 -236 158 -300 262 -27 44 -65 102 -83 127 -20 27 -52 97 -78
175 -24 71 -56 152 -70 180 -14 27 -23 52 -21 55 12 11 257 -73 350 -121 109
-55 471 -323 557 -410 43 -45 70 -55 99 -37 19 12 17 47 -9 131 -20 64 -22 87
-16 169 3 53 10 112 16 131 5 19 14 74 20 121 11 96 7 118 -38 183 l-26 38 31
27 c17 14 50 48 73 75 37 44 41 54 36 87 -6 36 -5 37 29 43 69 13 121 44 168
97 64 73 80 111 75 170 -5 45 3 62 17 40 5 -9 119 -48 206 -71 67 -17 316 -7
479 19 233 38 269 46 287 64 16 16 16 20 3 45 -12 21 -35 33 -105 57 -168 57
-268 119 -610 381 -273 209 -336 253 -430 298 -125 60 -132 66 -240 232 -42
63 -103 150 -138 195 -34 45 -87 115 -117 154 -294 387 -361 461 -546 603
-183 140 -289 197 -454 246 -164 48 -213 57 -320 57 -148 -1 -226 -30 -420
-158 -130 -86 -238 -186 -323 -300 -69 -91 -187 -316 -263 -501 -23 -57 -44
-106 -47 -108 -7 -7 -97 150 -124 218 -24 59 -24 60 -12 216 18 249 15 317
-22 409 -52 131 -149 257 -266 346 -83 62 -120 78 -207 83 -57 4 -85 0 -142
-20z"/>
</g>
</svg>
